<?xml version="1.0" standalone="no"?>
<!DOCTYPE svg PUBLIC "-//W3C//DTD SVG 20010904//EN"
 "http://www.w3.org/TR/2001/REC-SVG-20010904/DTD/svg10.dtd">
<svg version="1.0" xmlns="http://www.w3.org/2000/svg"
 width="1600.000000pt" height="1600.000000pt" viewBox="0 0 1600.000000 1600.000000"
 preserveAspectRatio="xMidYMid meet">
<metadata>
Created by potrace 1.14, written by Peter Selinger 2001-2017
</metadata>
<g transform="translate(0.000000,1600.000000) scale(0.100000,-0.100000)"
fill="#000000" stroke="none">
<path d="M6755 14837 c-17 -12 -32 -24 -35 -27 -3 -3 -23 -18 -45 -35 -56 -41
-67 -53 -62 -68 4 -8 6 -8 6 0 1 6 10 9 21 6 17 -5 19 -11 13 -47 -3 -22 -13
-45 -22 -51 -16 -9 -180 -9 -213 1 -24 7 -306 -52 -443 -93 -66 -20 -155 -46
-198 -59 -43 -13 -97 -24 -121 -24 -113 0 -485 -63 -537 -90 -21 -12 -109
-138 -109 -157 0 -7 -4 -13 -8 -13 -14 0 -110 -210 -127 -275 -17 -68 -19 -99
-5 -90 13 8 40 -48 40 -82 0 -18 9 -35 25 -47 28 -21 34 -56 9 -56 -9 0 -18
-9 -21 -21 -3 -11 -11 -18 -19 -15 -19 7 -37 -21 -30 -49 4 -16 13 -25 26 -25
13 0 20 -7 20 -19 0 -10 7 -21 15 -25 8 -3 15 -17 15 -31 0 -28 15 -61 37 -83
7 -8 13 -36 13 -67 0 -44 4 -56 20 -65 17 -9 22 -7 30 12 8 20 9 19 9 -14 1
-21 5 -38 10 -38 11 0 41 -73 41 -101 0 -23 67 -89 92 -89 9 0 20 -9 23 -20 3
-11 14 -20 23 -20 13 0 14 2 4 9 -11 7 -10 9 3 14 15 6 14 8 -2 26 -10 10 -27
21 -38 23 -14 2 -21 13 -25 38 -4 26 -11 36 -30 41 -14 4 -20 7 -13 8 7 1 10
8 7 16 -4 8 -10 12 -15 9 -13 -8 -11 10 3 24 15 15 114 16 123 1 4 -6 14 -8
22 -5 18 7 54 -11 52 -27 -3 -24 1 -37 11 -37 6 0 10 7 10 15 0 22 8 19 37
-15 29 -35 53 -39 53 -10 0 11 -7 20 -15 20 -18 0 -39 36 -25 45 5 3 10 -3 10
-14 0 -12 7 -21 15 -21 8 0 15 5 15 10 0 6 11 10 25 10 14 0 25 -4 25 -10 0
-5 -6 -10 -14 -10 -11 0 -13 -10 -9 -40 4 -31 2 -40 -10 -40 -8 0 -17 -9 -20
-20 -3 -14 -10 -18 -21 -14 -15 6 -16 -2 -13 -65 4 -57 2 -71 -10 -71 -8 0
-17 8 -20 18 -2 10 -13 18 -24 19 -22 2 -26 -15 -4 -23 20 -8 -23 -66 -44 -59
-9 2 -23 0 -31 -5 -12 -7 -10 -11 11 -18 14 -6 31 -17 38 -26 7 -9 20 -16 27
-16 8 0 14 -3 14 -8 0 -7 15 -15 93 -47 34 -14 39 -14 53 0 23 22 33 18 31
-12 -2 -23 3 -28 38 -38 36 -11 44 -10 75 10 36 23 105 37 172 36 42 -1 88 14
88 27 0 5 -14 9 -31 9 -17 0 -34 5 -37 11 -4 6 -43 13 -87 17 -99 9 -97 9
-169 -6 -46 -9 -67 -9 -92 0 -18 7 -43 14 -54 16 -69 13 -80 37 -19 42 166 12
233 26 276 58 18 14 50 28 70 31 20 2 47 13 58 24 12 11 26 20 32 20 10 0 14
13 29 90 3 19 14 44 24 55 35 39 42 110 17 159 -9 16 -13 34 -11 41 7 16 -34
42 -88 55 -66 17 -189 -1 -233 -34 -18 -14 -46 -26 -62 -26 -15 0 -52 -9 -82
-21 -30 -11 -71 -19 -90 -18 -20 1 -49 -4 -66 -10 -16 -7 -41 -10 -55 -8 -14
3 -29 -1 -35 -10 -9 -11 -16 -12 -40 -3 -17 6 -31 10 -33 8 -4 -5 -29 48 -47
102 -10 29 -26 61 -36 71 -21 21 -59 136 -65 199 -3 24 -9 47 -16 51 -6 4 -8
11 -5 16 3 5 0 21 -7 34 -7 14 -10 33 -6 43 5 16 7 15 18 -6 7 -13 14 -33 16
-43 2 -11 9 -20 17 -21 8 0 30 -10 49 -22 54 -34 66 -29 74 26 11 91 -22 168
-112 254 -28 27 -44 36 -60 31 -25 -6 -28 5 -9 31 11 15 17 16 35 7 33 -17 60
-13 97 15 28 21 34 33 37 67 2 34 7 43 25 45 12 2 27 10 34 19 11 13 9 19 -16
39 -17 13 -48 27 -69 31 l-40 6 35 29 c40 34 103 68 125 68 13 0 15 -7 10 -33
-5 -27 -2 -38 15 -53 12 -10 23 -17 26 -14 3 3 9 -5 14 -16 5 -16 2 -27 -14
-42 -86 -79 -109 -159 -75 -255 9 -29 17 -69 18 -89 0 -37 36 -112 49 -104 4
3 20 -4 37 -15 40 -26 136 -26 200 2 48 20 103 65 104 84 0 16 44 125 51 125
3 0 27 -20 53 -45 37 -34 57 -45 81 -45 38 0 52 14 57 55 2 20 9 31 22 33 23
5 36 -14 36 -50 0 -17 8 -33 19 -40 19 -11 17 -14 -22 -48 -22 -19 -52 -35
-67 -36 -14 0 -57 -4 -97 -8 -58 -6 -77 -13 -98 -33 -14 -14 -25 -33 -25 -43
0 -15 -11 -16 -102 -12 -135 5 -127 5 -173 -3 -59 -11 -105 -42 -105 -70 0
-40 27 -57 74 -49 22 4 87 7 143 8 l102 1 38 37 c35 35 40 37 55 22 8 -9 31
-17 49 -17 31 -2 36 -7 54 -51 30 -75 107 -107 175 -73 29 15 51 70 44 110 -5
26 -4 27 19 22 20 -5 31 -1 49 20 29 33 25 66 -13 123 -16 24 -29 47 -29 52 0
5 15 19 33 32 17 12 42 34 54 48 25 29 45 117 35 151 -16 56 -23 60 -130 86
-13 3 -34 0 -47 -7 -20 -11 -26 -10 -41 5 -15 14 -15 18 -3 26 8 5 17 9 20 9
4 0 20 13 36 30 31 32 97 70 156 89 20 7 37 17 37 22 0 5 6 9 14 9 14 0 20
-17 31 -93 3 -21 10 -47 15 -57 8 -14 5 -27 -10 -52 -37 -62 -21 -91 63 -112
59 -15 122 -11 204 15 33 10 48 35 38 60 -5 14 -79 42 -115 45 -48 3 -51 4
-43 17 10 17 4 59 -12 77 -7 8 -16 40 -19 71 -6 66 -4 67 82 61 38 -3 52 -8
48 -17 -2 -7 -7 -32 -11 -56 -6 -40 -4 -47 23 -72 48 -46 91 -50 161 -17 32
15 61 34 65 42 5 10 7 10 12 1 8 -17 29 -16 46 1 21 20 75 46 82 39 3 -4 6 -1
6 5 0 7 8 12 18 12 16 -1 16 -1 0 -11 -10 -5 -18 -15 -18 -20 0 -6 -8 -23 -19
-37 -10 -15 -24 -46 -31 -69 -14 -45 -30 -49 -30 -8 0 30 -30 40 -96 32 -95
-10 -139 -104 -76 -162 53 -51 153 -82 208 -66 26 7 34 5 48 -10 24 -29 20
-49 -10 -49 -51 0 -94 -76 -62 -108 15 -15 55 -16 63 -2 4 7 11 7 18 2 17 -13
219 -3 259 13 12 5 21 -1 32 -22 20 -39 34 -49 79 -57 29 -5 37 -4 37 8 0 8 7
12 18 10 24 -6 94 36 109 66 6 13 19 25 28 26 9 1 23 11 30 20 9 14 16 16 26
8 8 -6 25 -14 38 -17 33 -8 132 13 138 30 3 7 11 13 19 13 20 0 17 38 -3 44
-35 10 -212 11 -222 1 -6 -6 -12 -20 -14 -32 -4 -28 -17 -42 -17 -20 0 27 -43
31 -81 8 -23 -14 -51 -21 -85 -21 -37 0 -54 -4 -58 -15 -3 -8 -12 -15 -20 -15
-7 0 -16 7 -20 15 -3 8 -14 15 -24 15 -18 0 -42 18 -42 31 0 4 10 9 23 13 13
3 36 17 53 31 30 26 44 31 44 16 0 -11 43 -28 92 -37 49 -8 105 19 122 60 7
17 13 67 13 111 1 104 -16 130 -79 122 -32 -4 -49 -14 -73 -43 l-32 -38 -13
40 c-14 44 -37 74 -57 74 -22 0 -113 53 -113 66 0 13 45 59 57 58 4 0 15 9 24
20 16 20 17 19 23 -11 4 -17 14 -34 22 -37 8 -3 14 -14 14 -25 0 -30 79 -65
129 -56 32 5 42 13 56 41 16 34 16 38 -3 78 -28 58 -79 96 -131 96 -45 0 -104
33 -120 68 -15 32 -15 32 29 15 22 -9 40 -19 40 -23 0 -4 37 -7 83 -6 45 0 95
-4 110 -8 25 -6 28 -10 22 -34 -9 -41 12 -61 68 -65 26 -3 47 0 47 4 0 5 9 9
19 9 11 0 22 4 25 9 7 10 57 -11 95 -41 13 -10 30 -18 39 -18 8 0 31 -15 52
-32 21 -18 57 -44 80 -58 46 -28 110 -86 110 -100 0 -6 7 -10 15 -10 8 0 19
-9 25 -19 5 -11 19 -23 31 -26 16 -5 19 -12 15 -30 -3 -13 0 -27 8 -34 8 -7
12 -21 9 -31 -3 -12 1 -22 9 -25 10 -4 13 -16 10 -35 -10 -67 54 -109 108 -70
17 12 47 23 68 25 64 5 96 17 123 45 22 23 36 28 100 34 41 3 88 4 104 1 17
-3 46 -7 66 -9 20 -2 46 -9 58 -15 12 -7 26 -9 31 -6 5 3 30 0 57 -6 26 -6 73
-13 103 -15 155 -10 205 -17 236 -34 18 -11 50 -21 71 -24 21 -3 61 -10 88
-15 33 -6 52 -5 56 1 10 15 29 0 23 -16 -8 -22 66 -91 117 -110 26 -9 55 -26
64 -36 10 -11 23 -20 30 -20 6 0 34 -16 61 -35 27 -19 59 -35 70 -35 12 0 27
-7 34 -16 8 -8 29 -22 49 -30 35 -15 49 -26 98 -76 14 -16 32 -28 40 -28 7 0
13 -4 13 -8 0 -5 8 -17 19 -28 10 -11 26 -37 36 -57 10 -21 26 -42 36 -48 11
-5 19 -16 19 -24 0 -8 6 -18 13 -22 12 -7 29 -37 31 -55 1 -3 4 -10 9 -14 4
-4 7 -15 7 -25 0 -10 12 -31 26 -48 25 -30 76 -151 90 -215 4 -17 15 -37 25
-44 11 -7 19 -21 19 -32 0 -22 40 -100 52 -100 4 0 8 -15 8 -34 0 -18 7 -53
15 -76 26 -73 13 -93 -29 -47 -12 13 -30 26 -40 30 -10 4 -20 16 -23 27 -3 11
-9 20 -14 20 -5 0 -41 31 -80 69 l-71 69 26 17 c38 25 34 58 -14 105 -23 22
-43 40 -46 40 -2 0 -21 16 -40 35 -57 57 -104 83 -162 88 -43 3 -59 0 -85 -18
-27 -18 -32 -27 -29 -56 4 -44 14 -53 60 -54 102 -3 108 -5 122 -30 7 -14 19
-25 27 -25 17 0 17 -39 -1 -46 -8 -3 -28 2 -45 10 -16 9 -39 16 -50 16 -25 0
-91 31 -91 42 0 4 -8 8 -17 8 -10 0 -45 10 -78 21 -101 34 -185 47 -295 47
-58 0 -132 4 -165 8 -33 4 -71 7 -85 6 -48 -1 -216 -34 -242 -48 -14 -8 -38
-14 -51 -14 -14 0 -29 -4 -32 -10 -3 -5 -18 -10 -33 -10 -34 0 -185 -36 -226
-54 -17 -7 -51 -20 -76 -27 -25 -8 -54 -23 -65 -35 -11 -11 -35 -26 -53 -32
-30 -10 -34 -9 -44 13 -6 14 -15 25 -20 25 -5 0 -27 12 -50 26 -42 27 -42 27
-20 42 28 18 28 35 0 74 -26 36 -79 88 -90 88 -3 0 -13 6 -20 14 -8 7 -28 21
-45 29 -17 9 -38 23 -46 31 -8 8 -32 23 -53 33 -21 10 -43 28 -49 41 -10 22
-34 28 -99 24 -46 -4 -74 -60 -45 -89 8 -8 7 -13 -1 -18 -7 -4 -15 -4 -19 1
-3 5 -17 14 -31 20 -14 6 -45 20 -70 32 -25 12 -57 22 -71 22 -14 0 -34 9 -44
20 -10 11 -24 20 -30 20 -7 0 -18 6 -24 14 -6 7 -26 16 -43 20 -17 3 -39 12
-47 19 -39 33 -184 47 -373 35 l-66 -4 24 23 c34 31 33 86 -1 101 -14 7 -36
13 -48 13 -38 3 125 20 185 20 42 0 58 4 62 16 4 11 14 13 32 9 22 -6 25 -4
22 15 -4 31 -62 47 -202 58 -65 5 -121 13 -125 18 -10 16 -85 31 -109 22 -29
-11 -37 -50 -18 -87 13 -25 24 -32 61 -38 59 -8 65 -20 14 -27 -43 -6 -74 -27
-82 -56 -6 -25 10 -61 28 -61 8 0 15 -5 15 -11 0 -5 12 -9 28 -8 15 1 41 1 57
0 44 -2 11 -21 -37 -21 -20 0 -40 -4 -43 -10 -3 -5 -18 -10 -33 -10 -15 0 -40
-7 -56 -15 -46 -24 -83 -19 -98 12 -11 23 -22 29 -68 36 -104 16 -271 -28
-283 -75 -3 -12 0 -36 7 -53 14 -32 43 -45 100 -46 17 0 17 -2 3 -17 -47 -50
-57 -63 -57 -70 0 -11 -55 -42 -74 -42 -9 0 -19 -7 -22 -15 -8 -20 -24 -9 -24
15 0 37 -32 41 -117 17 -150 -44 -175 -68 -133 -128 22 -30 35 -36 45 -19 3 6
13 10 21 10 11 0 13 -9 8 -40 -5 -32 -3 -40 8 -40 9 0 21 7 29 16 7 9 35 25
61 37 26 11 48 24 48 29 0 4 9 8 20 8 12 0 20 7 20 16 0 9 9 18 21 21 13 4 18
11 14 21 -4 11 0 13 16 9 23 -6 65 16 87 46 8 10 19 16 25 14 20 -7 117 57
117 76 0 5 17 25 37 43 32 30 57 40 86 35 4 0 7 3 7 8 0 14 82 31 120 26 19
-3 46 -5 60 -4 27 2 172 0 205 -2 24 -2 66 8 74 17 3 4 -2 4 -11 1 -11 -4 -15
-2 -12 7 3 9 18 12 47 9 23 -3 65 -6 92 -8 28 -2 52 -5 55 -6 3 -1 10 -3 15
-3 6 -1 43 -12 84 -25 40 -12 87 -21 103 -19 21 2 33 -3 41 -17 9 -14 23 -20
51 -21 21 -1 42 -7 46 -14 4 -6 9 -11 11 -9 2 1 14 0 27 -3 14 -4 22 -14 22
-27 0 -13 9 -25 23 -31 12 -5 18 -9 13 -9 -14 -1 66 -57 97 -67 9 -4 17 -10
17 -14 0 -4 14 -10 32 -14 17 -3 39 -12 47 -20 14 -12 34 -24 107 -64 11 -6
54 -27 96 -47 47 -22 80 -44 83 -56 5 -13 12 -18 24 -14 22 7 44 -17 35 -39
-11 -29 -62 -20 -102 20 -61 59 -68 64 -83 64 -9 0 -25 9 -37 20 -12 12 -23
16 -27 10 -4 -6 -11 -8 -16 -4 -5 3 -7 10 -3 15 8 13 -38 50 -55 43 -8 -2 -22
3 -33 12 -10 10 -20 15 -23 12 -3 -2 46 -44 108 -92 112 -88 237 -201 237
-216 0 -14 -24 -27 -145 -76 -161 -65 -266 -137 -420 -285 -148 -143 -184
-189 -394 -498 -112 -166 -161 -229 -182 -239 -36 -15 -84 -50 -215 -157 -216
-175 -380 -315 -408 -346 -16 -19 -77 -84 -135 -144 -178 -186 -243 -256 -326
-355 -44 -52 -82 -97 -85 -100 -10 -9 -211 -251 -312 -375 -90 -111 -202 -264
-222 -302 -9 -18 -29 -51 -45 -75 -15 -24 -88 -162 -161 -308 -73 -146 -142
-281 -151 -300 -17 -32 -38 -142 -39 -197 0 -21 5 -23 51 -23 28 0 153 16 277
35 372 57 1092 136 1223 135 31 -1 100 6 155 15 180 29 308 46 429 56 324 26
543 39 674 39 l143 0 -6 -52 c-17 -141 -52 -340 -96 -538 -23 -102 -93 -346
-166 -574 -25 -77 -69 -222 -99 -321 -96 -323 -144 -473 -300 -940 -204 -607
-200 -592 -199 -835 1 -193 33 -670 55 -805 17 -104 86 -219 149 -245 23 -10
30 -19 30 -41 0 -15 9 -50 19 -77 27 -67 42 -244 32 -367 -5 -55 -6 -190 -4
-300 3 -119 1 -230 -6 -275 -14 -98 -38 -201 -48 -211 -17 -17 -131 -12 -227
9 -170 38 -250 28 -375 -46 -57 -35 -71 -49 -94 -96 -31 -62 -29 -73 23 -124
31 -32 38 -60 19 -79 -9 -9 -6 -20 10 -46 11 -19 21 -41 21 -50 0 -9 -41 -43
-95 -78 -52 -33 -95 -66 -95 -71 0 -6 9 -26 21 -45 22 -36 60 -58 149 -89 30
-10 58 -23 62 -29 17 -23 5 -56 -47 -126 -62 -83 -74 -114 -54 -134 27 -27
332 -139 379 -139 77 -1 195 62 282 151 83 83 138 115 195 112 34 -2 49 5 133
72 152 119 197 170 264 300 32 63 63 120 68 126 7 8 6 23 -1 43 -12 35 -6 58
16 62 12 2 23 34 40 118 54 263 62 299 82 376 43 169 50 221 52 401 3 204 8
187 -86 294 -85 98 -83 118 15 172 27 15 32 22 28 47 -3 17 0 34 6 39 6 5 56
11 111 14 55 2 129 9 165 16 36 6 146 27 245 46 99 19 221 42 270 51 50 9 140
20 201 25 61 4 176 17 255 29 135 21 149 21 205 7 63 -16 74 -15 74 10 0 22
77 94 93 87 21 -8 37 -44 47 -104 5 -30 13 -75 19 -100 6 -25 13 -55 16 -67
12 -52 -140 -80 -176 -32 l-16 21 -40 -20 c-65 -34 -64 -27 -48 -243 8 -107
18 -340 22 -518 l6 -324 -71 5 c-38 3 -76 2 -83 -2 -12 -8 -39 3 -72 29 -35
29 -201 83 -241 79 -22 -2 -38 -15 -61 -48 -28 -40 -46 -52 -176 -111 -138
-63 -144 -67 -143 -95 1 -26 52 -229 105 -415 22 -77 54 -114 113 -130 59 -16
187 -14 286 4 126 24 254 40 350 42 101 2 132 16 205 89 61 61 126 166 166
271 42 108 79 252 79 310 0 28 12 80 26 120 33 89 60 213 73 337 6 53 16 109
22 125 8 18 14 174 19 438 11 571 13 594 59 675 52 92 100 215 111 285 28 184
52 488 47 610 -2 72 0 173 5 225 19 209 31 341 38 460 5 69 13 148 19 175 13
56 32 183 56 360 9 66 36 255 61 420 41 267 47 329 55 565 8 256 18 393 39
550 48 361 68 833 42 966 -20 97 -22 422 -7 769 27 599 25 855 -6 1075 -5 41
-12 129 -15 195 -6 162 -40 319 -74 345 -12 9 -19 92 -10 115 7 19 5 24 -11
28 -16 4 -18 9 -11 24 9 19 -18 186 -37 221 -16 30 -51 141 -51 162 0 11 -3
20 -8 20 -8 0 -21 29 -44 94 -7 21 -19 41 -25 43 -7 3 -13 14 -13 24 0 10 -4
19 -10 19 -5 0 -10 7 -10 16 0 9 -13 41 -30 71 -16 30 -30 63 -30 75 0 22 -77
142 -122 190 -15 17 -28 34 -28 38 0 4 -19 28 -43 54 -24 25 -42 48 -40 50 13
12 -289 246 -319 246 -4 0 -31 18 -60 40 -31 23 -60 38 -69 35 -11 -4 -18 2
-22 15 -3 11 -13 20 -22 20 -10 0 -38 10 -62 22 l-45 23 -22 -28 c-26 -32 -36
-27 -36 19 0 22 -5 33 -18 36 -15 4 -17 0 -14 -29 4 -31 -9 -45 -23 -23 -3 5
-24 14 -47 20 -23 7 -51 24 -65 41 -14 16 -31 29 -39 29 -8 0 -14 4 -14 9 0 5
-9 7 -20 4 -11 -3 -20 -1 -20 4 0 12 -83 11 -92 -1 -4 -6 -13 -5 -22 3 -8 7
-25 12 -38 11 -39 -4 -48 -1 -48 15 0 23 -41 19 -47 -5 -3 -11 -9 -17 -14 -15
-4 3 -13 -3 -19 -12 -10 -16 -11 -16 -7 4 3 14 -4 30 -20 45 -23 21 -33 23
-141 23 -64 0 -169 -3 -233 -6 -106 -6 -121 -9 -177 -39 -64 -34 -98 -35 -87
-1 3 10 1 29 -4 42 -9 23 -10 22 -10 -9 -2 -61 -41 -98 -41 -38 0 12 -3 26 -7
30 -4 4 -6 27 -4 51 2 34 -1 45 -12 45 -17 0 -31 42 -28 87 2 24 -3 34 -21 44
-13 6 -27 18 -31 26 -5 8 -16 11 -28 8 -13 -5 -19 -2 -19 10 0 15 -16 33 -70
79 -18 15 -24 15 -31 5 -5 -8 -9 -17 -9 -21 0 -13 -62 -20 -70 -8 -6 9 -9 9
-13 -1 -4 -12 -7 -12 -18 0 -11 10 -11 15 -1 18 17 6 15 50 -2 60 -8 4 -15 10
-16 13 -9 50 -11 51 -73 54 -10 1 -21 7 -25 13 -11 18 -110 44 -115 30 -3 -9
-8 -9 -20 1 -12 11 -18 11 -28 -1 -11 -12 -19 -7 -47 27 -19 22 -42 41 -51 41
-9 0 -16 7 -16 15 0 8 8 14 18 14 9 -1 17 4 17 12 0 7 -8 18 -17 23 -10 6 -15
11 -12 11 4 0 -9 16 -27 35 -19 21 -31 42 -28 50 4 10 0 15 -14 15 -16 0 -20
-5 -16 -24 2 -14 0 -27 -5 -31 -13 -7 -30 26 -23 45 5 13 3 13 -13 0 -10 -8
-20 -14 -22 -12 -1 1 -7 2 -13 2 -14 0 -12 -27 3 -33 6 -3 -9 -3 -35 -1 -43 4
-48 3 -48 -15 0 -11 5 -23 10 -26 19 -12 10 -20 -25 -22 -31 -1 -35 1 -35 23
0 13 5 24 12 24 8 0 9 3 1 11 -12 12 -65 1 -57 -12 11 -19 -12 -8 -35 16 -22
24 -24 24 -37 8 -11 -15 -11 -20 2 -29 13 -10 10 -14 -15 -25 -26 -11 -38 -27
-59 -73 -3 -5 0 -6 7 -2 6 4 11 2 11 -4 0 -8 -7 -9 -17 -5 -10 4 -22 8 -28 9
-5 1 -23 14 -39 29 -28 26 -29 29 -17 67 13 44 23 53 59 54 16 1 26 7 28 19 2
13 -2 17 -12 13 -9 -3 -14 1 -14 11 0 9 -3 13 -7 10 -3 -4 -11 -3 -17 2 -7 6
-22 2 -41 -12z m-35 -117 c0 -5 -4 -10 -10 -10 -5 0 -10 5 -10 10 0 6 5 10 10
10 6 0 10 -4 10 -10z m244 2 c2 -4 -4 -8 -14 -8 -10 0 -16 4 -14 8 3 4 9 8 14
8 5 0 11 -4 14 -8z m321 -2 c3 -5 1 -10 -4 -10 -6 0 -11 5 -11 10 0 6 2 10 4
10 3 0 8 -4 11 -10z m-266 -62 c1 -16 -3 -28 -8 -28 -13 0 -21 42 -14 70 6 22
7 23 14 4 4 -10 8 -31 8 -46z m269 20 c13 -13 16 -38 5 -38 -5 0 -13 11 -20
25 -12 27 -5 33 15 13z m-138 -48 c0 -5 -2 -10 -4 -10 -3 0 -8 5 -11 10 -3 6
-1 10 4 10 6 0 11 -4 11 -10z m-297 -95 c-1 -5 -19 -14 -40 -19 -64 -14 -104
-36 -148 -82 -22 -23 -40 -31 -65 -32 -19 0 -42 -1 -50 -1 -78 -5 -250 24
-250 41 0 4 -3 7 -7 7 -5 -1 -14 -1 -21 0 -18 1 -5 21 15 21 8 0 31 7 50 17
24 11 37 13 42 5 9 -15 129 -6 157 12 12 8 57 18 100 22 44 4 90 11 104 15 34
11 115 6 113 -6z m-726 -15 c1 -15 -4 -20 -22 -20 -33 0 -41 18 -13 29 33 14
34 13 35 -9z m1 -79 c11 -7 11 -9 -2 -14 -10 -4 -16 -18 -16 -36 0 -37 -14
-46 -48 -32 -23 9 -35 7 -76 -14 -27 -14 -57 -25 -67 -25 -10 0 -20 -4 -24
-10 -3 -5 -12 -7 -19 -4 -7 3 -26 -8 -42 -24 -28 -28 -74 -48 -74 -32 0 4 7
13 15 20 8 7 15 18 15 25 0 8 17 23 38 36 20 12 48 32 62 45 24 22 101 50 129
47 8 -1 24 5 35 13 23 16 54 18 74 5z m1042 -45 c0 -3 -4 -8 -10 -11 -5 -3
-10 -1 -10 4 0 6 5 11 10 11 6 0 10 -2 10 -4z m-520 -27 c0 -6 -4 -7 -10 -4
-5 3 -10 11 -10 16 0 6 5 7 10 4 6 -3 10 -11 10 -16z m450 2 c0 -6 -4 -13 -10
-16 -5 -3 -10 1 -10 9 0 9 5 16 10 16 6 0 10 -4 10 -9z m-1561 -49 c67 -26 66
-26 48 -53 -9 -11 -13 -28 -10 -35 3 -8 0 -21 -6 -28 -9 -11 -9 -19 0 -34 15
-24 52 -39 169 -67 52 -13 85 -24 73 -24 -13 -1 -23 -5 -23 -10 0 -18 -32 -41
-57 -41 -14 0 -36 -9 -50 -20 -36 -28 -47 -25 -66 15 -9 19 -21 35 -27 35 -5
0 -10 6 -10 14 0 15 -65 77 -100 96 l-23 12 28 22 c23 19 26 27 20 54 -6 31
-35 56 -65 57 -8 0 -16 8 -18 19 -3 16 1 18 30 13 18 -2 57 -14 87 -25z m754
-7 c-3 -9 -8 -14 -10 -11 -3 3 -2 9 2 15 9 16 15 13 8 -4z m285 -26 c-2 -6 -8
-10 -13 -10 -5 0 -11 4 -13 10 -2 6 4 11 13 11 9 0 15 -5 13 -11z m336 -8 c9
-14 -4 -41 -20 -41 -8 0 -14 7 -14 15 0 8 -7 15 -15 15 -8 0 -15 5 -15 10 0
12 57 13 64 1z m-304 -11 c0 -5 -2 -10 -4 -10 -3 0 -8 5 -11 10 -3 6 -1 10 4
10 6 0 11 -4 11 -10z m428 -221 c3 -41 -1 -50 -24 -68 -38 -30 -69 -27 -84 8
-27 66 7 115 75 109 28 -3 30 -6 33 -49z m1442 -29 c0 -5 -4 -10 -10 -10 -5 0
-10 5 -10 10 0 6 5 10 10 10 6 0 10 -4 10 -10z m-3040 -44 c0 -29 -3 -31 -39
-33 -36 -2 -39 0 -34 20 7 27 42 57 60 50 7 -3 13 -19 13 -37z m3300 40 c0 -3
-4 -8 -10 -11 -5 -3 -10 -1 -10 4 0 6 5 11 10 11 6 0 10 -2 10 -4z m-3300
-139 c0 -4 0 -14 0 -22 0 -8 -11 -17 -25 -21 -19 -5 -31 -1 -45 16 -11 12 -17
27 -14 32 6 10 84 5 84 -5z m300 -7 c0 -5 -5 -10 -11 -10 -5 0 -7 5 -4 10 3 6
8 10 11 10 2 0 4 -4 4 -10z m3699 1 c9 -6 12 -18 7 -37 -7 -26 -9 -27 -20 -12
-7 10 -27 21 -45 24 -25 5 -29 9 -20 20 13 16 57 18 78 5z m-3564 -197 c7 -39
3 -50 -14 -39 -13 8 -15 75 -2 75 5 0 12 -16 16 -36z m-155 -435 c0 -6 -4 -7
-10 -4 -5 3 -10 11 -10 16 0 6 5 7 10 4 6 -3 10 -11 10 -16z m-128 -21 c-7 -7
-12 -19 -12 -27 0 -35 -16 -45 -48 -30 -17 7 -33 21 -35 31 -4 14 1 18 26 19
18 0 41 4 52 9 28 12 31 12 17 -2z m135 -20 c-3 -8 -6 -5 -6 6 -1 11 2 17 5
13 3 -3 4 -12 1 -19z m-47 -25 c0 -14 -4 -22 -11 -18 -5 4 -21 8 -35 10 -28 3
-51 21 -41 31 3 4 13 -1 22 -10 18 -18 35 -13 35 9 0 9 6 12 15 9 8 -4 15 -17
15 -31z m17 15 c-3 -8 -6 -5 -6 6 -1 11 2 17 5 13 3 -3 4 -12 1 -19z m63 -6
c0 -15 -2 -15 -10 -2 -13 20 -13 33 0 25 6 -3 10 -14 10 -23z m110 -9 c3 -3
-3 -10 -12 -17 -15 -11 -15 -15 -3 -27 12 -12 11 -17 -10 -38 l-25 -23 0 31
c0 20 -5 31 -14 31 -16 0 -29 27 -16 35 4 3 16 -2 25 -11 15 -15 15 -14 9 11
-6 25 -5 27 17 20 13 -4 26 -10 29 -12z m-123 -48 c-7 -24 -14 -32 -20 -26 -7
7 -7 19 1 36 17 38 32 31 19 -10z m-29 -45 c14 -23 10 -25 -19 -9 -11 5 -17
14 -14 20 9 14 19 11 33 -11z m-188 -14 c0 -15 7 -26 20 -29 14 -4 20 -14 20
-33 0 -22 -3 -25 -12 -16 -7 7 -21 12 -32 12 -19 1 -20 1 -3 11 16 9 16 12 2
32 -17 25 -20 47 -5 47 6 0 10 -11 10 -24z m264 8 c3 -8 2 -12 -4 -9 -6 3 -10
10 -10 16 0 14 7 11 14 -7z m-164 -52 c0 -15 -2 -15 -10 -2 -13 20 -13 33 0
25 6 -3 10 -14 10 -23z m-130 -29 c-1 -26 -50 -43 -50 -18 0 12 14 19 43 24 4
0 7 -2 7 -6z m218 -39 c2 -23 -3 -31 -22 -40 -21 -10 -25 -9 -30 8 -2 11 -9
17 -15 13 -6 -3 -8 -12 -5 -18 4 -7 -5 -1 -19 12 -38 34 -15 57 55 55 29 -1
33 -4 36 -30z m2277 5 c3 -4 12 -6 20 -2 8 3 15 1 15 -5 0 -5 14 -15 30 -22
17 -7 30 -16 30 -21 0 -5 5 -9 10 -9 6 0 20 -9 32 -20 l22 -20 -22 0 c-11 0
-24 5 -27 10 -4 6 -14 10 -23 8 -18 -2 -66 25 -92 52 -8 9 -23 19 -33 23 -10
4 -16 11 -13 16 7 10 43 3 51 -10z m1980 -129 c3 -5 -1 -10 -9 -10 -9 0 -16 5
-16 10 0 6 4 10 9 10 6 0 13 -4 16 -10z m-1077 -347 c4 -1 -53 -27 -80 -37
-13 -4 -18 0 -18 14 0 10 5 22 10 25 6 3 10 1 10 -4 0 -6 5 -11 10 -11 6 0 9
3 8 8 0 4 2 15 7 25 7 17 8 17 29 0 11 -10 22 -19 24 -20z m49 -6 c-1 -6 8
-13 21 -15 30 -5 31 -42 1 -42 -26 0 -70 45 -63 64 6 16 44 9 41 -7z m499 -64
c-10 -10 -19 5 -10 18 6 11 8 11 12 0 2 -7 1 -15 -2 -18z m-831 -3 c-4 -6 -13
-9 -21 -6 -7 3 -16 1 -19 -4 -9 -15 -27 -12 -23 3 3 6 18 15 34 18 34 6 39 4
29 -11z m465 0 c0 -5 -5 -10 -11 -10 -5 0 -7 5 -4 10 3 6 8 10 11 10 2 0 4 -4
4 -10z m98 -22 c-6 -18 -28 -21 -28 -4 0 9 7 16 16 16 9 0 14 -5 12 -12z m38
-33 c-4 -14 -2 -25 4 -25 5 0 10 6 11 13 0 7 3 7 6 -3 4 -8 15 -22 27 -31 l20
-16 -22 -7 c-12 -4 -22 -14 -22 -22 0 -8 -4 -14 -10 -14 -5 0 -10 6 -10 14 0
7 -6 19 -14 26 -8 6 -12 18 -9 26 3 8 0 21 -7 29 -14 17 -5 35 17 35 11 0 14
-6 9 -25z m-822 0 c15 -11 16 -15 5 -15 -8 0 -24 7 -35 15 -14 11 -15 14 -4
14 8 0 24 -6 34 -14z m-114 -5 c0 -5 -4 -10 -9 -10 -6 0 -13 5 -16 10 -3 6 1
10 9 10 9 0 16 -4 16 -10z m-40 -81 c0 -5 -4 -9 -10 -9 -5 0 -10 7 -10 16 0 8
5 12 10 9 6 -3 10 -10 10 -16z m-45 -49 c-24 -46 -32 -28 -9 20 10 21 20 33
22 25 2 -7 -4 -28 -13 -45z m712 9 c7 -6 13 -24 13 -39 0 -15 9 -35 19 -44 11
-10 35 -42 53 -73 18 -30 52 -84 76 -121 23 -36 42 -70 42 -74 0 -4 7 -8 16
-8 12 0 15 -6 9 -22 -3 -13 -10 -36 -13 -52 -7 -25 -15 -30 -77 -47 -91 -23
-138 -23 -204 1 -83 30 -217 21 -304 -20 -73 -34 -84 -36 -132 -16 -34 15 -34
15 -28 68 3 29 10 58 14 64 5 6 8 22 7 35 -2 30 39 156 59 178 8 9 24 32 37
51 30 47 56 52 56 10 0 -18 -6 -44 -14 -58 -20 -38 -41 -114 -37 -132 1 -8 14
-26 27 -39 33 -33 116 -41 167 -16 37 17 77 69 77 99 0 9 16 33 35 53 37 38
38 56 8 116 -36 71 -58 78 -159 52 -32 -8 -60 -13 -63 -10 -30 30 280 73 316
44z m-627 -10 c0 -17 -58 -80 -65 -70 -3 5 2 16 10 24 8 9 15 19 15 24 0 11
21 33 32 33 4 0 8 -5 8 -11z m-94 -69 c8 0 14 -9 14 -20 0 -23 -4 -24 -30 -10
-15 8 -18 23 -10 50 1 3 4 -1 7 -7 2 -7 11 -13 19 -13z m1134 -5 c10 -12 10
-15 -3 -15 -8 0 -17 7 -21 15 -3 8 -2 15 3 15 5 0 14 -7 21 -15z m-1260 -45
c0 -5 -4 -10 -9 -10 -6 0 -13 5 -16 10 -3 6 1 10 9 10 9 0 16 -4 16 -10z m37
4 c-3 -3 -12 -4 -19 -1 -8 3 -5 6 6 6 11 1 17 -2 13 -5z m4 -104 c31 0 -2 -68
-34 -70 -5 0 -5 6 0 13 10 17 13 39 6 51 -4 5 -10 1 -14 -10 -7 -18 -8 -18 -8
2 -1 26 10 37 23 24 5 -5 18 -10 27 -10z m67 -32 c-3 -7 -11 -13 -18 -13 -7 0
-15 6 -17 13 -3 7 4 12 17 12 13 0 20 -5 18 -12z m-113 -37 c3 -5 18 -12 35
-16 27 -6 29 -9 28 -56 -1 -27 -5 -49 -10 -49 -5 0 -6 5 -3 10 3 6 1 10 -4 10
-11 0 -15 -13 -12 -37 1 -6 -3 -14 -9 -18 -21 -13 -70 61 -70 106 0 40 30 74
45 50z m1487 -86 c0 -5 -5 -11 -11 -13 -6 -2 -11 4 -11 13 0 9 5 15 11 13 6
-2 11 -8 11 -13z m-1552 -115 c-8 -5 -17 -7 -19 -4 -3 3 1 9 9 14 8 5 17 7 19
4 3 -3 -1 -9 -9 -14z m25 -51 c11 -16 1 -19 -13 -3 -7 8 -8 14 -3 14 5 0 13
-5 16 -11z m35 -70 c0 -5 -4 -9 -10 -9 -5 0 -10 7 -10 16 0 8 5 12 10 9 6 -3
10 -10 10 -16z m1230 7 c0 -2 -7 -7 -16 -10 -8 -3 -12 -2 -9 4 6 10 25 14 25
6z m-1094 -30 c19 -15 19 -15 -1 -30 -11 -8 -21 -19 -21 -25 -1 -6 -2 -15 -3
-21 -1 -14 -28 -13 -37 2 -4 6 -2 14 4 16 7 2 12 16 12 31 0 43 13 51 46 27z
m-106 -6 c0 -5 -4 -10 -10 -10 -5 0 -10 5 -10 10 0 6 5 10 10 10 6 0 10 -4 10
-10z m710 2 c0 -5 -9 -17 -19 -26 -21 -19 -37 -7 -27 19 6 16 46 21 46 7z
m135 -47 c0 -28 -29 -25 -33 3 -3 19 0 23 15 20 10 -2 18 -12 18 -23z m-343
-7 c-7 -7 -12 -8 -12 -2 0 14 12 26 19 19 2 -3 -1 -11 -7 -17z m228 -28 c0 -5
-2 -10 -4 -10 -3 0 -8 5 -11 10 -3 6 -1 10 4 10 6 0 11 -4 11 -10z m-370 -10
c0 -5 -5 -10 -11 -10 -5 0 -7 5 -4 10 3 6 8 10 11 10 2 0 4 -4 4 -10z m120 -5
c0 -8 -4 -15 -10 -15 -5 0 -10 7 -10 15 0 8 5 15 10 15 6 0 10 -7 10 -15z
m190 -11 c0 -8 -5 -12 -10 -9 -6 4 -8 11 -5 16 9 14 15 11 15 -7z m-388 -9 c0
-5 -5 -11 -11 -13 -6 -2 -11 4 -11 13 0 9 5 15 11 13 6 -2 11 -8 11 -13z m48
1 c0 -2 -3 -11 -6 -20 -9 -23 -24 -20 -24 4 0 11 7 20 15 20 8 0 15 -2 15 -4z
m390 0 c0 -2 -7 -9 -15 -16 -13 -11 -14 -10 -9 4 5 14 24 23 24 12z m-1080
-42 c0 -14 -12 -19 -23 -8 -9 9 4 35 14 28 5 -3 9 -12 9 -20z m2265 -64 c3 -5
1 -10 -4 -10 -6 0 -11 5 -11 10 0 6 2 10 4 10 3 0 8 -4 11 -10z m-2980 -90 c3
-5 13 -10 22 -10 28 0 53 -31 52 -64 -1 -20 -3 -24 -6 -11 -4 23 -42 51 -52
38 -11 -14 -31 -14 -31 2 0 7 -7 18 -16 23 -9 5 -14 14 -10 21 9 14 33 14 41
1z m-64 -49 c5 -12 5 -20 1 -17 -4 2 -14 1 -22 -4 -12 -8 -13 -13 -2 -30 17
-28 16 -30 -17 -30 -21 0 -32 6 -36 20 -3 11 -11 20 -16 20 -23 0 -6 28 29 47
44 25 52 24 63 -6z m67 -33 c19 -19 14 -38 -11 -38 -32 0 -38 8 -24 31 14 22
19 23 35 7z m-178 -12 c0 -3 -4 -8 -10 -11 -5 -3 -10 -1 -10 4 0 6 5 11 10 11
6 0 10 -2 10 -4z m290 -26 c0 -5 -4 -10 -10 -10 -5 0 -10 5 -10 10 0 6 5 10
10 10 6 0 10 -4 10 -10z m-293 -14 c-3 -8 1 -17 9 -20 21 -8 17 -53 -7 -70
-24 -16 -49 -11 -49 10 0 8 -5 14 -11 14 -11 0 -39 24 -39 34 0 3 6 3 14 0 8
-3 16 3 19 15 3 12 15 21 33 24 16 2 31 5 33 6 2 0 1 -5 -2 -13z m319 -94
c-11 -10 -14 3 -8 33 l7 30 3 -28 c2 -16 1 -31 -2 -35z m-126 14 c5 14 9 13
23 -9 22 -34 21 -40 -3 -32 -16 5 -20 2 -20 -14 0 -14 -6 -21 -19 -21 -11 0
-23 -4 -26 -10 -10 -17 -25 -11 -25 10 0 11 -7 20 -15 20 -8 0 -15 7 -15 15 0
7 -7 18 -16 23 -19 10 -8 20 28 27 13 3 24 9 26 14 2 5 15 -2 30 -16 23 -21
27 -22 32 -7z m-247 -13 c4 -3 5 -13 2 -23 -4 -13 1 -19 20 -24 14 -4 25 -13
25 -21 0 -18 46 -20 53 -2 3 9 7 9 18 1 8 -7 30 -15 49 -19 19 -4 40 -11 46
-16 7 -6 20 -1 34 11 21 18 25 19 40 5 9 -8 22 -15 28 -15 22 0 12 -27 -13
-38 -18 -8 -26 -8 -31 0 -5 7 -12 5 -21 -7 -12 -18 -13 -18 -13 -1 0 27 -25
13 -28 -16 -2 -18 -10 -27 -28 -31 -26 -5 -35 19 -10 29 8 3 12 13 9 24 -3 11
-11 16 -19 13 -8 -3 -14 1 -14 10 0 27 -21 30 -43 8 -19 -18 -20 -24 -9 -42
13 -21 7 -44 -9 -34 -5 4 -9 -3 -9 -14 0 -23 -28 -28 -61 -11 -15 9 -19 7 -19
-6 0 -9 9 -18 20 -21 22 -6 22 -6 14 -27 -10 -25 -34 -19 -34 8 0 13 -7 27
-16 30 -13 5 -12 9 5 28 12 12 21 25 21 30 0 4 8 8 19 8 22 0 56 46 41 55 -6
4 -24 10 -40 15 -27 8 -31 6 -36 -16 -5 -20 -11 -23 -28 -18 -32 10 -39 20
-27 42 8 15 7 27 -3 47 -11 21 -12 31 -3 41 11 11 47 10 70 -3z m-103 -28 c10
-13 9 -15 -8 -15 -15 0 -20 5 -16 15 4 8 7 15 9 15 1 0 8 -7 15 -15z m-56 -15
c24 -9 37 -40 17 -40 -4 0 -12 -14 -17 -32 -12 -40 -34 -49 -34 -14 0 14 5 26
10 26 6 0 10 11 10 25 0 14 -5 25 -11 25 -6 0 -9 -6 -6 -12 2 -7 -6 -23 -19
-34 -16 -16 -19 -25 -11 -33 6 -6 9 -11 7 -12 -45 -8 -60 -8 -65 1 -3 5 1 10
10 10 18 0 62 49 57 63 -2 6 18 35 25 37 1 0 13 -4 27 -10z m2220 -29 c6 -10
-22 -37 -29 -29 -8 7 5 38 15 38 5 0 11 -4 14 -9z m-1304 -76 c0 -8 -7 -15
-15 -15 -8 0 -15 7 -15 15 0 8 7 15 15 15 8 0 15 -7 15 -15z m-1059 -4 c-10
-6 -5 -12 18 -22 17 -8 31 -17 31 -21 0 -12 -24 -15 -47 -7 -26 10 -30 -2 -8
-21 21 -17 44 -66 36 -77 -8 -12 -68 -36 -78 -32 -4 2 -7 10 -5 17 2 6 -6 12
-17 12 -11 0 -22 -6 -24 -12 -4 -10 -8 -9 -16 2 -8 12 -13 12 -23 2 -6 -6 -17
-12 -22 -12 -6 1 -2 8 9 18 11 9 33 34 49 55 16 22 34 36 42 33 8 -3 11 0 8 8
-6 15 32 66 49 66 8 0 7 -3 -2 -9z m195 -76 c5 -12 9 -13 20 -4 15 12 27 7 30
-14 1 -7 3 -18 5 -26 2 -7 -5 -15 -16 -17 -48 -10 -60 -8 -60 6 0 8 8 14 18
14 9 -1 17 3 17 8 0 6 -9 8 -20 5 -23 -6 -33 5 -24 27 8 20 23 21 30 1z m224
-40 c0 -32 -33 -51 -50 -30 -11 13 -9 19 6 35 26 26 44 25 44 -5z m173 -42
c-6 -15 13 -18 22 -3 8 13 55 13 55 0 0 -6 11 -3 24 5 17 12 26 13 31 5 12
-20 -12 -33 -70 -38 -30 -2 -58 -8 -61 -13 -3 -5 -9 -9 -15 -9 -10 0 -13 73
-2 83 9 10 22 -13 16 -30z m-487 6 c19 -21 18 -21 -4 -39 -21 -18 -24 -18 -42
-3 -17 15 -18 18 -2 39 21 29 24 29 48 3z m239 -12 c0 -26 -20 -25 -23 2 -3
16 1 22 10 19 7 -3 13 -12 13 -21z m-190 -7 c3 -6 -1 -7 -9 -4 -18 7 -21 14
-7 14 6 0 13 -4 16 -10z m145 -20 c0 -5 -4 -10 -10 -10 -5 0 -10 5 -10 10 0 6
5 10 10 10 6 0 10 -4 10 -10z m-370 -10 c0 -5 -4 -10 -10 -10 -5 0 -10 5 -10
10 0 6 5 10 10 10 6 0 10 -4 10 -10z m860 -36 c0 -8 -5 -12 -10 -9 -6 4 -8 11
-5 16 9 14 15 11 15 -7z m-961 -16 c26 15 44 16 35 0 -5 -8 -2 -9 9 -5 10 4
17 1 17 -6 0 -8 3 -9 8 -1 12 18 42 25 42 9 0 -8 9 -19 20 -25 11 -6 18 -16
14 -21 -4 -7 -10 -7 -16 -1 -6 6 -20 -1 -40 -18 -16 -15 -39 -35 -49 -44 -16
-13 -17 -19 -7 -36 16 -26 4 -36 -27 -22 -32 15 -65 15 -65 2 0 -5 5 -10 11
-10 5 0 7 -5 4 -10 -4 -6 -2 -17 5 -25 15 -18 4 -22 -49 -20 -48 1 -66 19 -30
30 15 5 18 9 9 15 -7 4 -9 13 -6 19 4 6 3 11 -3 11 -6 0 -8 7 -5 15 4 8 16 15
29 15 22 0 22 2 14 41 -7 32 -6 46 4 58 8 9 17 25 21 35 6 19 7 19 21 0 12
-16 17 -17 34 -6z m313 -33 c-14 -19 -18 -20 -28 -7 -6 8 -9 25 -6 38 4 22 5
22 28 8 23 -15 23 -17 6 -39z m104 5 c-6 -53 -11 -58 -41 -52 -20 3 -24 1 -19
-12 7 -18 40 -22 46 -4 3 7 14 9 33 4 27 -7 28 -9 12 -18 -18 -9 -18 -11 2
-29 12 -11 21 -23 21 -28 0 -4 20 -3 45 3 25 6 45 14 45 18 0 12 48 9 55 -3 4
-6 12 -8 19 -6 7 3 12 -4 13 -17 0 -11 -1 -16 -4 -9 -2 7 -11 9 -20 6 -12 -5
-9 -10 13 -28 28 -22 28 -22 6 -29 -13 -5 -22 -16 -22 -28 0 -13 -10 -24 -29
-31 -16 -6 -33 -20 -37 -31 -6 -20 -7 -19 -11 4 -5 32 -32 90 -41 90 -4 0 -18
3 -31 7 -20 5 -23 3 -18 -10 4 -11 1 -17 -8 -17 -9 0 -12 6 -9 15 4 8 1 15 -4
15 -6 0 -12 10 -14 23 -2 17 -9 21 -28 19 -14 -1 -26 -7 -28 -12 -6 -17 -19
-11 -25 10 -3 11 -1 20 4 20 12 0 0 74 -12 78 -9 4 71 91 84 91 4 1 6 -17 3
-39z m-179 24 c-3 -3 -12 -4 -19 -1 -8 3 -5 6 6 6 11 1 17 -2 13 -5z m577 -3
c3 -5 0 -13 -7 -19 -15 -13 -42 1 -33 17 9 13 33 15 40 2z m-136 -13 c17 -17
15 -24 -14 -43 -15 -9 -23 -12 -20 -6 4 6 0 11 -8 11 -9 0 -16 -4 -16 -10 0
-5 -9 -10 -20 -10 -18 0 -19 3 -10 20 6 11 8 24 5 29 -12 20 64 28 83 9z m62
-2 c0 -2 -7 -7 -16 -10 -8 -3 -12 -2 -9 4 6 10 25 14 25 6z m125 -6 c3 -5 -1
-10 -9 -10 -9 0 -16 5 -16 10 0 6 4 10 9 10 6 0 13 -4 16 -10z m-308 -16 c8
-21 -13 -42 -28 -27 -13 13 -5 43 11 43 6 0 13 -7 17 -16z m-282 -35 c6 -17 9
-18 16 -8 4 7 11 11 14 7 9 -8 -13 -48 -26 -48 -6 0 -7 5 -4 10 3 6 2 10 -4
10 -5 0 -13 -6 -17 -12 -6 -9 -10 -5 -14 12 -10 41 23 67 35 29z m-365 1 c0
-5 -4 -10 -9 -10 -6 0 -13 5 -16 10 -3 6 1 10 9 10 9 0 16 -4 16 -10z m920
-23 c38 7 39 -4 3 -19 -60 -24 -78 -17 -67 27 6 25 7 26 21 6 10 -16 21 -19
43 -14z m-255 13 c3 -5 -1 -10 -9 -10 -9 0 -16 5 -16 10 0 6 4 10 9 10 6 0 13
-4 16 -10z m-695 -14 c0 -3 -4 -8 -10 -11 -5 -3 -10 -1 -10 4 0 6 5 11 10 11
6 0 10 -2 10 -4z m1011 -41 c0 -5 -9 -11 -21 -13 -12 -2 -20 -11 -20 -23 0
-10 -4 -19 -10 -19 -18 0 -11 58 8 63 25 7 43 4 43 -8z m246 1 c-3 -8 -1 -17
6 -20 7 -2 4 -5 -5 -5 -18 -1 -24 19 -11 32 11 11 15 8 10 -7z m-1304 -33 c-3
-19 -11 -33 -19 -33 -8 0 -14 -5 -14 -11 0 -5 5 -7 10 -4 13 8 40 -13 40 -31
0 -9 -11 -14 -30 -14 -32 0 -41 16 -12 23 12 3 10 5 -8 7 -14 1 -31 2 -39 1
-7 -2 -10 2 -6 8 8 14 79 90 81 88 1 -1 -1 -17 -3 -34z m437 32 c0 -2 -9 -9
-20 -15 -16 -9 -18 -8 -14 5 5 13 34 22 34 10z m755 -21 l17 -27 -26 19 c-26
19 -33 34 -17 34 5 0 16 -12 26 -26z m58 -3 c2 -10 1 -25 -4 -32 -12 -21 -33
4 -24 30 8 26 21 27 28 2z m-873 -11 c8 -15 17 -19 31 -15 13 4 19 2 19 -8 0
-38 -73 -19 -78 21 -4 28 14 29 28 2z m990 -35 c0 -8 -4 -15 -10 -15 -5 0 -7
7 -4 15 4 8 8 15 10 15 2 0 4 -7 4 -15z m-440 -19 c0 -8 -4 -17 -9 -20 -10 -7
-23 19 -14 28 11 11 23 6 23 -8z m-592 -18 c-7 -19 -38 -22 -38 -4 0 10 9 16
21 16 12 0 19 -5 17 -12z m777 -18 c3 -5 1 -10 -4 -10 -6 0 -11 5 -11 10 0 6
2 10 4 10 3 0 8 -4 11 -10z m171 -10 c26 0 32 -21 10 -39 -23 -19 -46 -2 -45
33 0 17 3 25 6 19 2 -7 16 -13 29 -13z m114 10 c0 -5 -2 -10 -4 -10 -3 0 -8 5
-11 10 -3 6 -1 10 4 10 6 0 11 -4 11 -10z m-1502 -47 c-2 -27 -8 -39 -20 -41
-11 -2 -18 3 -18 12 0 10 -6 13 -15 10 -22 -9 -18 5 8 31 34 35 49 31 45 -12z
m1062 6 c0 -5 -7 -9 -15 -9 -15 0 -20 12 -9 23 8 8 24 -1 24 -14z m-960 -26
c0 -8 4 -12 9 -8 20 11 20 -13 0 -33 -25 -27 -53 -30 -42 -4 5 9 8 31 8 49 -1
25 2 30 12 21 7 -6 13 -17 13 -25z m93 1 c-6 -17 -44 -15 -51 4 -2 8 7 12 27
12 23 0 29 -4 24 -16z m703 -11 c-10 -10 -19 5 -10 18 6 11 8 11 12 0 2 -7 1
-15 -2 -18z m664 -20 c0 -3 -7 -2 -16 1 -11 4 -18 -1 -21 -14 -3 -11 -12 -20
-19 -20 -19 0 -18 16 2 24 10 4 14 14 11 26 -5 18 -4 18 19 3 13 -8 24 -18 24
-20z m-1644 2 c-3 -9 0 -15 8 -15 19 0 46 -44 46 -75 0 -21 -4 -25 -19 -20
-16 5 -19 0 -23 -40 -3 -49 4 -54 40 -30 16 12 26 13 42 5 25 -13 25 -17 2
-55 -12 -19 -16 -38 -12 -50 8 -22 -8 -55 -27 -55 -15 0 -44 40 -37 51 2 5 11
6 19 2 8 -3 15 0 15 6 0 6 -11 16 -25 21 -14 5 -25 14 -25 20 0 5 -22 10 -50
10 -36 0 -50 -4 -50 -14 0 -8 7 -13 16 -12 9 0 19 -5 22 -13 4 -11 -6 -13 -47
-9 -28 3 -54 7 -56 10 -7 6 23 66 37 74 7 4 8 2 4 -4 -4 -7 0 -12 11 -13 10 0
27 -2 37 -4 11 -2 27 0 35 5 10 6 11 10 4 10 -7 0 -13 12 -13 28 0 28 -5 31
-62 35 -28 2 -21 20 18 45 19 12 39 33 44 45 5 12 9 16 9 8 1 -8 -9 -25 -21
-38 -22 -24 -13 -33 11 -10 11 10 13 10 7 0 -4 -8 -1 -13 8 -13 19 0 25 28 13
57 -7 16 -6 27 3 38 16 19 24 19 16 0z m891 -27 c13 -15 12 -18 -7 -28 -31
-17 -42 -1 -28 38 7 18 14 27 17 20 2 -7 10 -21 18 -30z m-237 -8 c0 -13 -28
-25 -38 -16 -3 4 0 11 8 16 20 13 30 12 30 0z m1360 -23 c0 -5 -4 -5 -10 -2
-5 3 -10 14 -10 23 0 15 2 15 10 2 5 -8 10 -19 10 -23z m-1800 -7 c0 -21 -8
-24 -34 -14 -25 10 -19 34 9 34 18 0 25 -5 25 -20z m1176 -7 c-10 -10 -19 5
-10 18 6 11 8 11 12 0 2 -7 1 -15 -2 -18z m183 -6 c28 7 26 -5 -4 -33 l-25
-23 0 22 c0 12 -3 33 -5 47 -5 23 -5 24 4 3 7 -15 16 -20 30 -16z m-1019 -17
c0 -5 -9 -10 -20 -10 -11 0 -20 5 -20 10 0 6 9 10 20 10 11 0 20 -4 20 -10z
m-61 -21 c-7 -4 -17 -5 -22 -2 -5 3 -3 9 4 14 7 4 17 5 22 2 5 -3 3 -9 -4 -14z
m126 1 c3 -6 -1 -7 -9 -4 -18 7 -21 14 -7 14 6 0 13 -4 16 -10z m901 -17 c-10
-10 -19 5 -10 18 6 11 8 11 12 0 2 -7 1 -15 -2 -18z m-406 7 c0 -5 -4 -10 -10
-10 -5 0 -10 5 -10 10 0 6 5 10 10 10 6 0 10 -4 10 -10z m-800 -18 c0 -4 -9
-13 -20 -20 -16 -10 -20 -10 -20 1 0 8 3 17 7 20 9 9 33 9 33 -1z m620 -18 c0
-8 -8 -14 -18 -14 -25 0 -34 11 -21 26 13 15 39 7 39 -12z m630 9 c-1 -14 -27
-43 -39 -43 -16 0 -14 16 5 34 16 17 34 21 34 9z m-543 -27 c5 7 14 4 25 -7
15 -16 14 -17 -15 -14 -18 2 -43 7 -56 11 -17 5 -22 4 -17 -4 4 -7 1 -12 -8
-12 -14 0 -14 3 -4 20 16 25 40 30 55 10 9 -10 15 -11 20 -4z m-871 -13 c-10
-10 -19 5 -10 18 6 11 8 11 12 0 2 -7 1 -15 -2 -18z m194 18 c0 -6 -4 -12 -9
-15 -13 -8 -42 4 -35 15 7 12 44 12 44 0z m1310 -11 c-12 -22 -30 -18 -30 6 0
8 9 14 20 14 18 0 19 -3 10 -20z m-1060 -26 c0 -8 7 -17 15 -20 8 -4 15 -12
15 -20 0 -8 -7 -14 -15 -14 -8 0 -15 9 -15 19 0 10 -7 21 -15 25 -8 3 -15 12
-15 20 0 10 6 13 15 10 8 -4 15 -13 15 -20z m560 22 c0 -3 -4 -8 -10 -11 -5
-3 -10 -1 -10 4 0 6 5 11 10 11 6 0 10 -2 10 -4z m-240 -16 c0 -5 -2 -10 -4
-10 -3 0 -8 5 -11 10 -3 6 -1 10 4 10 6 0 11 -4 11 -10z m-1080 -7 c-1 -10
-50 -46 -50 -37 0 9 33 43 43 43 4 1 7 -2 7 -6z m955 -32 c0 -8 -8 -19 -18
-25 -15 -9 -21 -7 -32 8 -11 15 -17 16 -28 7 -11 -9 -17 -8 -26 2 -16 20 -8
23 51 22 38 0 53 -4 53 -14z m303 7 c10 -10 17 -10 32 0 17 11 20 10 20 -8 0
-11 -3 -19 -7 -19 -5 1 -10 1 -13 -1 -3 -1 -22 -3 -42 -6 -40 -5 -50 10 -26
34 15 15 21 15 36 0z m402 -2 c0 -11 -19 -15 -25 -6 -3 5 1 10 9 10 9 0 16 -2
16 -4z m-1106 -37 c-3 -5 -10 -7 -15 -3 -5 3 -7 10 -3 15 3 5 10 7 15 3 5 -3
7 -10 3 -15z m1136 -10 c0 -5 -7 -9 -15 -9 -9 0 -15 9 -15 21 0 18 2 19 15 9
8 -7 15 -16 15 -21z m-1700 -19 c0 -22 -16 -35 -25 -20 -9 14 4 52 16 45 5 -4
9 -15 9 -25z m330 10 c0 -19 -20 -27 -33 -13 -8 7 11 33 24 33 5 0 9 -9 9 -20z
m188 -7 c2 -8 -6 -13 -22 -13 -17 0 -26 5 -26 16 0 19 41 16 48 -3z m769 11
c-3 -3 -12 -4 -19 -1 -8 3 -5 6 6 6 11 1 17 -2 13 -5z m-1327 -26 c0 -5 -7
-16 -15 -24 -8 -9 -15 -26 -15 -40 0 -28 -8 -30 -26 -6 -12 16 -14 15 -15 -8
-3 -33 -4 -42 -14 -63 -4 -10 -4 -21 0 -25 4 -4 10 -1 12 6 3 6 15 12 29 12
20 0 22 -3 15 -22 -5 -13 -15 -22 -24 -22 -9 1 -13 -5 -10 -17 4 -15 0 -19
-21 -19 -22 0 -25 3 -20 28 4 20 -2 34 -21 55 -14 15 -21 27 -15 27 5 0 10 6
10 14 0 8 11 28 25 44 14 17 25 35 25 40 0 18 40 40 61 35 10 -3 19 -10 19
-15z m80 18 c0 -3 -4 -8 -10 -11 -5 -3 -10 -1 -10 4 0 6 5 11 10 11 6 0 10 -2
10 -4z m527 -2 c-3 -3 -12 -4 -19 -1 -8 3 -5 6 6 6 11 1 17 -2 13 -5z m680 0
c-3 -3 -12 -4 -19 -1 -8 3 -5 6 6 6 11 1 17 -2 13 -5z m-797 -14 c0 -5 -9 -10
-20 -10 -11 0 -20 5 -20 10 0 6 9 10 20 10 11 0 20 -4 20 -10z m-295 -23 l27
-22 -25 -27 -24 -26 31 -15 c28 -14 28 -16 9 -16 -13 -1 -23 -5 -23 -11 0 -17
-52 -11 -66 8 -10 13 -17 15 -31 6 -10 -6 -18 -15 -18 -20 0 -5 -4 -15 -9 -22
-4 -7 -5 -16 -2 -19 3 -4 -1 -15 -10 -24 -16 -17 -16 -19 0 -25 9 -3 16 -10
16 -15 0 -4 -20 4 -43 19 -42 26 -43 27 -23 39 12 7 29 16 39 19 10 4 17 17
17 33 0 31 -9 45 -32 54 -28 10 -23 39 5 32 17 -5 32 2 56 24 39 37 70 39 106
8z m115 -22 c34 -17 39 -27 13 -23 -12 2 -17 -3 -15 -14 2 -11 -3 -18 -13 -18
-8 0 -15 -4 -15 -10 0 -5 -6 -10 -14 -10 -22 0 -17 48 7 56 20 6 20 7 2 20
-25 19 -1 18 35 -1z m-451 -160 c16 10 22 -12 6 -25 -12 -10 -16 -9 -22 6 -3
11 -11 22 -16 25 -5 4 -6 13 -2 20 6 9 11 6 17 -10 4 -12 12 -20 17 -16z
m-132 -1 c-3 -3 -12 -4 -19 -1 -8 3 -5 6 6 6 11 1 17 -2 13 -5z m181 -70 l3
-29 -16 29 c-18 34 -19 39 -2 34 6 -3 13 -18 15 -34z m937 6 c-3 -5 -13 -10
-21 -10 -8 0 -12 5 -9 10 3 6 13 10 21 10 8 0 12 -4 9 -10z m-1048 -52 c-3 -8
-6 -5 -6 6 -1 11 2 17 5 13 3 -3 4 -12 1 -19z m173 -8 c0 -5 -4 -10 -10 -10
-5 0 -10 5 -10 10 0 6 5 10 10 10 6 0 10 -4 10 -10z m-131 -36 c-6 -8 -17 -14
-25 -14 -7 0 -20 -10 -29 -22 l-17 -23 7 25 c4 14 11 26 15 28 4 1 16 9 26 16
23 17 40 10 23 -10z m2156 16 c3 -5 -1 -10 -10 -10 -9 0 -13 5 -10 10 3 6 8
10 10 10 2 0 7 -4 10 -10z m-2229 -46 c-3 -9 -6 -22 -6 -30 0 -18 -11 -18 -36
1 -19 15 -19 15 0 30 26 20 50 20 42 -1z m94 8 c0 -4 -14 -16 -31 -26 l-31
-18 17 26 c16 24 45 36 45 18z m-192 -53 c-21 -39 -50 -80 -54 -76 -6 5 26 68
44 90 20 23 25 16 10 -14z m1062 21 c0 -5 -4 -10 -10 -10 -5 0 -10 5 -10 10 0
6 5 10 10 10 6 0 10 -4 10 -10z m1200 -85 c0 -8 -4 -15 -10 -15 -5 0 -10 7
-10 15 0 8 5 15 10 15 6 0 10 -7 10 -15z m-2240 -25 c0 -5 -4 -10 -10 -10 -5
0 -10 5 -10 10 0 6 5 10 10 10 6 0 10 -4 10 -10z m1565 -40 c-3 -5 -10 -10
-16 -10 -5 0 -9 5 -9 10 0 6 7 10 16 10 8 0 12 -4 9 -10z m-1651 -16 c18 -7
22 -39 6 -49 -12 -8 -53 33 -45 45 7 12 17 12 39 4z m1550 -26 c9 -36 8 -39
-21 -35 -29 4 -45 27 -19 27 9 0 16 7 16 15 0 23 17 18 24 -7z m614 -10 c-3
-7 -11 -13 -18 -13 -7 0 -15 6 -17 13 -3 7 4 12 17 12 13 0 20 -5 18 -12z
m-408 -72 c0 -3 -4 -8 -10 -11 -5 -3 -10 -1 -10 4 0 6 5 11 10 11 6 0 10 -2
10 -4z m-1844 -58 c-3 -13 -6 -26 -6 -30 0 -5 -7 -8 -16 -8 -11 0 -14 5 -10
16 3 9 6 22 6 30 0 8 7 14 16 14 12 0 15 -6 10 -22z m1234 -7 c0 -17 -18 -21
-24 -6 -3 9 0 15 9 15 8 0 15 -4 15 -9z m110 -18 c0 -15 -16 -18 -25 -3 -3 5
-12 7 -20 3 -8 -3 -15 0 -15 5 0 6 14 10 30 10 18 -1 30 -6 30 -15z m220 -29
c0 -9 -5 -14 -12 -12 -18 6 -21 28 -4 28 9 0 16 -7 16 -16z m-270 -4 c0 -5 -7
-10 -16 -10 -8 0 -12 5 -9 10 3 6 10 10 16 10 5 0 9 -4 9 -10z m215 0 c4 -6
-5 -10 -20 -10 -15 0 -24 4 -20 10 3 6 12 10 20 10 8 0 17 -4 20 -10z m1345
-10 c0 -5 -2 -10 -4 -10 -3 0 -8 5 -11 10 -3 6 -1 10 4 10 6 0 11 -4 11 -10z
m-1796 -9 c3 -4 0 -15 -7 -23 -15 -19 -67 -33 -67 -18 0 5 8 11 18 11 15 1 15
2 -2 6 -17 4 -16 6 5 18 29 16 46 18 53 6z m39 -28 c-7 -2 -19 -2 -25 0 -7 3
-2 5 12 5 14 0 19 -2 13 -5z m1767 -3 c0 -5 -4 -10 -10 -10 -5 0 -10 5 -10 10
0 6 5 10 10 10 6 0 10 -4 10 -10z m610 -4 c0 -8 -4 -17 -9 -21 -12 -7 -24 12
-16 25 9 15 25 12 25 -4z m-2540 -6 c0 -5 -8 -10 -17 -10 -15 0 -16 2 -3 10
19 12 20 12 20 0z m-165 -10 c-28 -12 -37 -12 -30 0 3 6 16 10 28 9 21 0 21
-1 2 -9z m-387 -61 c-2 -6 -8 -10 -13 -10 -5 0 -11 4 -13 10 -2 6 4 11 13 11
9 0 15 -5 13 -11z m-78 -23 c0 -3 -4 -8 -10 -11 -5 -3 -10 -1 -10 4 0 6 5 11
10 11 6 0 10 -2 10 -4z m3630 -446 c0 -5 -4 -10 -10 -10 -5 0 -10 5 -10 10 0
6 5 10 10 10 6 0 10 -4 10 -10z m210 0 c0 -5 -4 -10 -9 -10 -6 0 -13 5 -16 10
-3 6 1 10 9 10 9 0 16 -4 16 -10z m-890 -54 c0 -3 -4 -8 -10 -11 -5 -3 -10 -1
-10 4 0 6 5 11 10 11 6 0 10 -2 10 -4z m690 -58 c0 -5 -7 -8 -15 -8 -15 0 -20
21 -8 33 7 7 23 -11 23 -25z m64 23 c3 -5 -3 -11 -14 -14 -20 -5 -26 3 -13 16
9 10 21 9 27 -2z m-1074 -47 c0 -8 -4 -12 -10 -9 -5 3 -10 10 -10 16 0 5 5 9
10 9 6 0 10 -7 10 -16z m1077 -516 c-3 -8 -6 -5 -6 6 -1 11 2 17 5 13 3 -3 4
-12 1 -19z m-657 -38 c0 -5 -4 -10 -10 -10 -5 0 -10 5 -10 10 0 6 5 10 10 10
6 0 10 -4 10 -10z m-586 -426 c23 -9 20 -21 -6 -20 -12 0 -23 7 -26 14 -4 13
7 15 32 6z m43 -336 c-3 -8 -6 -5 -6 6 -1 11 2 17 5 13 3 -3 4 -12 1 -19z
m-540 -2559 c12 -35 26 -65 32 -67 16 -5 81 -98 81 -115 0 -8 6 -17 13 -20 18
-7 34 -72 42 -162 3 -38 13 -108 22 -155 16 -86 20 -290 11 -520 -6 -142 -13
-170 -43 -170 -28 0 -133 36 -152 52 -15 12 -40 28 -80 49 -31 17 -35 35 -18
77 11 24 14 50 9 78 -4 30 -1 52 10 74 12 25 13 37 4 53 -13 25 -2 376 14 416
6 17 8 106 4 247 -4 121 -3 224 1 227 15 15 29 -2 50 -64z m2157 -126 c14
-139 25 -324 22 -393 -3 -97 -34 -173 -68 -168 -34 5 -59 62 -54 119 3 26 1
50 -3 55 -13 15 -32 87 -31 119 1 17 0 46 -1 65 -1 19 1 53 6 75 5 22 9 47 10
55 0 8 7 16 15 16 8 1 20 2 27 3 6 0 15 22 19 49 8 58 10 62 34 62 15 0 19
-10 24 -57z"/>
<path d="M6446 10796 c3 -9 11 -16 16 -16 13 0 5 23 -10 28 -7 2 -10 -2 -6
-12z"/>
<path d="M6269 10612 c-4 -40 -3 -62 3 -62 4 0 8 8 8 18 0 10 5 23 11 29 7 7
6 12 -5 16 -9 4 -16 3 -17 -1z"/>
<path d="M6230 10570 c0 -5 5 -10 11 -10 5 0 7 5 4 10 -3 6 -8 10 -11 10 -2 0
-4 -4 -4 -10z"/>
<path d="M6257 10523 c-4 -3 -7 -11 -7 -17 0 -6 5 -5 12 2 6 6 9 14 7 17 -3 3
-9 2 -12 -2z"/>
<path d="M6880 10415 c7 -9 15 -13 17 -11 7 7 -7 26 -19 26 -6 0 -6 -6 2 -15z"/>
<path d="M5840 9930 c0 -5 7 -10 16 -10 8 0 12 5 9 10 -3 6 -10 10 -16 10 -5
0 -9 -4 -9 -10z"/>
<path d="M5900 9909 c0 -5 5 -7 10 -4 6 3 10 8 10 11 0 2 -4 4 -10 4 -5 0 -10
-5 -10 -11z"/>
<path d="M5855 9900 c3 -5 -5 -16 -17 -24 l-22 -16 21 0 c12 0 25 -4 28 -10 3
-5 12 -10 19 -10 21 0 7 57 -15 63 -10 3 -17 1 -14 -3z"/>
<path d="M7730 14695 c30 -55 33 -95 4 -58 -14 17 -15 17 -12 -2 2 -14 11 -20
32 -21 16 -1 35 -8 41 -18 7 -9 16 -16 20 -16 5 0 -3 12 -17 28 -25 27 -41 62
-52 115 -5 18 -13 27 -26 27 -19 0 -19 -3 10 -55z"/>
<path d="M7632 14712 c7 -17 18 -28 29 -28 24 0 24 18 1 39 -29 27 -42 22 -30
-11z"/>
<path d="M6592 14679 c-20 -7 -21 -12 -12 -30 l12 -21 15 21 c19 28 13 41 -15
30z"/>
<path d="M7478 14685 c-3 -6 -4 -22 -1 -37 5 -28 5 -28 34 -11 16 10 29 21 29
25 0 13 -28 9 -36 -4 -6 -9 -10 -5 -14 12 -3 14 -9 20 -12 15z"/>
<path d="M7848 14530 c19 -44 31 -49 50 -20 11 18 8 22 -27 40 l-39 20 16 -40z"/>
<path d="M7980 14486 c0 -14 11 -38 25 -54 13 -16 22 -32 18 -36 -3 -3 3 -6
15 -6 26 0 29 24 7 46 -11 12 -12 20 -5 35 9 16 7 21 -15 29 -39 15 -45 13
-45 -14z"/>
<path d="M8082 14476 c7 -8 15 -12 17 -11 5 6 -10 25 -20 25 -5 0 -4 -6 3 -14z"/>
<path d="M8070 14432 c0 -15 7 -26 19 -29 11 -3 22 -14 25 -26 9 -36 17 -12
10 32 -6 36 -8 39 -19 24 -11 -15 -13 -15 -23 3 -11 18 -11 18 -12 -4z"/>
<path d="M8043 14363 c-7 -3 -13 -21 -13 -40 0 -63 73 -97 77 -35 0 14 6 28
12 30 6 2 11 11 11 20 -1 16 -2 16 -14 0 -7 -10 -17 -14 -21 -10 -5 4 -5 2 -1
-5 3 -6 2 -14 -2 -17 -8 -5 -25 21 -34 50 -2 6 -9 9 -15 7z"/>
<path d="M7447 14316 c-10 -8 -19 -28 -19 -45 -1 -25 9 -40 46 -76 27 -25 52
-42 57 -39 6 3 16 1 23 -6 8 -6 27 -15 43 -20 15 -5 52 -18 82 -29 65 -24 91
-20 115 19 16 29 16 30 -10 59 -14 16 -32 27 -39 24 -15 -5 -116 45 -180 89
-49 34 -94 43 -118 24z"/>
<path d="M7828 14048 c-52 -14 -86 -68 -70 -110 6 -16 9 -35 6 -43 -6 -16 53
-27 78 -14 29 15 68 81 68 115 0 26 -26 67 -41 63 -2 -1 -21 -6 -41 -11z"/>
<path d="M6469 13919 c-60 -22 -63 -102 -6 -157 29 -28 35 -30 56 -19 39 20
64 61 64 108 0 67 -45 93 -114 68z"/>
<path d="M6280 13895 c-14 -8 -33 -18 -42 -21 -10 -3 -18 -10 -18 -15 0 -5 -6
-9 -14 -9 -29 0 -47 -47 -40 -103 4 -28 11 -57 16 -64 15 -19 0 -33 -37 -33
-45 0 -80 -45 -70 -90 15 -67 87 -63 188 10 45 33 67 57 67 70 0 11 7 23 15
26 21 8 19 31 -5 61 -11 14 -17 30 -13 37 4 6 10 36 14 66 9 77 -9 96 -61 65z"/>
<path d="M8395 13902 c-6 -4 -18 -17 -28 -29 -18 -21 -18 -23 -1 -52 25 -43
45 -48 143 -36 97 12 111 18 111 45 0 10 5 22 10 25 15 10 12 19 -12 34 -24
15 -206 26 -223 13z"/>
<path d="M7878 13837 c-16 -6 -31 -19 -34 -30 -7 -23 14 -67 32 -67 7 0 29
-10 49 -22 25 -14 52 -21 81 -20 24 1 44 -2 44 -8 0 -13 47 -13 55 1 4 6 13 8
21 5 17 -6 17 -1 3 38 -11 29 -62 66 -93 66 -7 0 -34 11 -60 25 -51 27 -58 28
-98 12z"/>
<path d="M8900 13832 c0 -6 -9 -13 -19 -17 -10 -3 -25 -20 -32 -37 -12 -28
-11 -32 10 -49 17 -14 40 -19 82 -19 32 0 61 -4 64 -10 9 -14 119 -12 133 2
43 43 -27 101 -142 117 -34 5 -69 12 -78 16 -10 4 -18 3 -18 -3z"/>
<path d="M6623 13741 c-30 -36 -112 -91 -136 -91 -16 0 -36 -33 -37 -62 0 -37
38 -76 82 -84 41 -7 46 -3 129 94 60 69 76 133 43 166 -24 25 -46 19 -81 -23z"/>
<path d="M7630 13673 c-14 -9 -26 -17 -28 -19 -2 -1 3 -14 10 -29 16 -31 100
-69 175 -80 27 -3 70 -13 96 -20 79 -23 316 -50 329 -37 13 13 -6 42 -26 42
-7 0 -31 9 -54 20 -22 11 -47 20 -53 20 -7 0 -40 9 -73 19 -34 10 -97 27 -141
36 -44 10 -87 21 -95 25 -42 21 -92 40 -103 40 -7 0 -24 -8 -37 -17z"/>
<path d="M8298 13668 c-21 -21 -22 -38 -7 -71 10 -21 20 -25 82 -32 40 -4 79
-7 87 -7 8 0 44 -7 80 -15 74 -17 147 -18 166 -2 7 6 18 8 24 4 5 -3 15 -3 20
0 38 23 -103 105 -218 126 -37 7 -101 13 -142 14 -61 1 -78 -2 -92 -17z"/>
<path d="M7362 13577 c-40 -43 -30 -71 56 -153 42 -41 80 -74 84 -74 4 0 28
-20 54 -44 58 -55 98 -74 119 -56 33 28 17 56 -102 177 -65 66 -124 131 -132
146 -18 34 -50 35 -79 4z"/>
<path d="M9072 13577 c-22 -23 -29 -71 -14 -94 11 -18 58 -33 100 -32 41 1 91
-7 137 -21 35 -11 139 -29 208 -36 63 -6 112 18 103 49 -3 12 -6 27 -6 34 0 6
-21 15 -47 18 -27 4 -57 10 -68 15 -11 5 -44 12 -72 15 -29 4 -53 10 -53 15 0
4 -20 10 -45 13 -24 4 -54 11 -65 17 -11 5 -29 15 -40 20 -11 6 -42 10 -68 10
-38 0 -53 -5 -70 -23z"/>
<path d="M5074 13538 c-19 -20 -21 -34 -15 -79 2 -12 80 -49 103 -49 33 0 68
39 68 76 -1 37 -31 60 -91 69 -38 6 -47 3 -65 -17z"/>
<path d="M5530 13499 c-19 -5 -66 -11 -103 -13 -75 -3 -100 -18 -91 -53 7 -25
68 -53 129 -58 65 -7 139 26 163 71 9 17 7 25 -9 43 -21 23 -35 24 -89 10z"/>
<path d="M6253 13476 c-28 -19 -68 -50 -88 -70 -19 -20 -44 -36 -55 -36 -28 0
-69 -43 -76 -80 -6 -27 -3 -35 22 -56 35 -28 75 -30 112 -7 15 10 59 50 99 90
74 76 120 150 110 177 -11 28 -68 19 -124 -18z"/>
<path d="M9762 13473 c-49 -24 -51 -52 -10 -163 7 -20 21 -48 30 -62 30 -46 3
-50 -80 -12 -43 20 -75 27 -127 28 -68 1 -70 0 -73 -25 -4 -38 47 -79 99 -79
21 0 39 -3 39 -8 0 -18 61 -34 103 -26 23 4 45 8 49 8 4 1 13 7 20 14 6 6 18
12 25 12 6 0 23 5 36 11 46 21 40 135 -10 191 -9 10 -13 26 -10 39 3 11 3 18
0 15 -9 -9 -37 26 -38 47 0 27 -14 30 -53 10z"/>
<path d="M8772 13378 c-23 -23 -14 -62 22 -90 19 -16 44 -28 54 -28 11 0 25
-6 31 -14 11 -13 125 -42 145 -37 5 1 31 -3 58 -8 68 -15 121 6 116 45 -4 32
-3 32 -138 75 -58 19 -107 36 -110 39 -27 28 -155 41 -178 18z"/>
<path d="M8133 13325 c-50 -22 -45 -53 18 -106 39 -32 60 -43 88 -44 20 0 44
-5 53 -11 26 -14 156 -1 175 19 24 24 3 42 -77 66 -38 12 -85 31 -104 42 -20
11 -40 18 -46 14 -6 -3 -22 3 -36 14 -31 24 -30 24 -71 6z"/>
<path d="M7218 13123 c7 -3 16 -2 19 1 4 3 -2 6 -13 5 -11 0 -14 -3 -6 -6z"/>
<path d="M7310 13110 c20 -13 40 -13 40 0 0 6 -12 10 -27 10 -22 0 -25 -2 -13
-10z"/>
<path d="M5220 13090 c0 -12 40 -34 47 -26 9 8 -17 36 -33 36 -8 0 -14 -4 -14
-10z"/>
<path d="M8395 13064 l-24 -26 33 -30 c19 -17 51 -37 72 -45 49 -17 151 -26
159 -13 3 6 16 10 28 10 28 0 97 46 97 64 0 19 -43 29 -117 27 -44 -2 -73 3
-104 18 -61 30 -114 28 -144 -5z"/>
<path d="M5281 12998 c-12 -19 -11 -23 5 -35 24 -17 53 -18 36 -1 -7 7 -12 20
-12 29 0 27 -14 30 -29 7z"/>
<path d="M5360 13001 c0 -7 -4 -9 -10 -6 -5 3 -10 2 -10 -3 0 -15 28 -23 36
-11 3 6 1 16 -5 22 -8 8 -11 8 -11 -2z"/>
<path d="M5045 12960 c3 -5 8 -10 11 -10 2 0 4 5 4 10 0 6 -5 10 -11 10 -5 0
-7 -4 -4 -10z"/>
<path d="M7670 12960 c20 -13 33 -13 25 0 -3 6 -14 10 -23 10 -15 0 -15 -2 -2
-10z"/>
<path d="M5188 12873 c6 -2 12 -12 13 -21 0 -11 2 -12 6 -4 2 6 10 10 16 6 7
-3 3 2 -7 10 -11 9 -25 16 -30 15 -6 0 -5 -3 2 -6z"/>
<path d="M5246 12855 c-3 -8 -1 -15 4 -15 6 0 10 7 10 15 0 8 -2 15 -4 15 -2
0 -6 -7 -10 -15z"/>
</g>
</svg>
